<?xml version="1.0" encoding="utf-8"?>
<!-- Generator: Adobe Illustrator 21.0.0, SVG Export Plug-In . SVG Version: 6.00 Build 0)  -->
<svg version="1.1" id="Layer_1" xmlns="http://www.w3.org/2000/svg" xmlns:xlink="http://www.w3.org/1999/xlink" x="0px" y="0px"
	 viewBox="0 0 630 630" style="enable-background:new 0 0 630 630;" xml:space="preserve">
<style type="text/css">
	.st0{fill:#F7DF1E;}
</style>
<g id="logo">
	<rect id="background" y="0" class="st0" width="630" height="630"/>
	<path id="j" d="M165.6,526.5l48.2-29.2c9.3,16.5,17.8,30.4,38.1,30.4c19.5,0,31.7-7.6,31.7-37.2V289.2h59.2v202.1
		c0,61.3-35.9,89.2-88.4,89.2C207.1,580.6,179.6,556.1,165.6,526.5"/>
	<path id="s" d="M375,520.1l48.2-27.9c12.7,20.7,29.2,35.9,58.4,35.9c24.5,0,40.2-12.3,40.2-29.2c0-20.3-16.1-27.5-43.1-39.3
		l-14.8-6.3c-42.7-18.2-71-41-71-89.2c0-44.4,33.8-78.2,86.7-78.2c37.6,0,64.7,13.1,84.2,47.4l-46.1,29.6
		c-10.1-18.2-21.1-25.4-38.1-25.4c-17.3,0-28.3,11-28.3,25.4c0,17.8,11,25,36.4,35.9l14.8,6.3c50.3,21.6,78.7,43.6,78.7,93
		c0,53.3-41.9,82.5-98.1,82.5C427.9,580.6,392.3,554.4,375,520.1"/>
</g>
<g>
	<path d="M386,236.8v-1.4c2.1-1.2,3.4-2.9,4-5.2c0.3-1.5,0.5-3.8,0.5-7.1v-24.4c0-3.5-0.2-5.7-0.7-6.5c-0.5-0.8-1.6-1.3-3.3-1.3H386
		l-0.7-1.5c0.3-0.1,0.5-0.2,0.7-0.3c0.2-0.1,0.5-0.2,0.8-0.3c4.4-1.9,8.7-3.9,12.9-6c4.2-2.2,8.4-4.5,12.6-6.9l16.8,21.6l-25.1,20.8
		v12.6c2.1,0.9,4.1,1.8,6.1,2.8c2,1,4,2,5.9,3.1l10-6.6l1.4,1.9l-20.3,13.4C399.6,240.7,392.5,237.8,386,236.8 M404.1,184.3v28.2
		l13.7-11.3L404.1,184.3z"/>
	<path d="M317.6,232.8c-1.3,0.9-2.3,1.3-3,1.3c-2.5,0-3.7-2.6-3.7-7.7v-36.3l4.5-4.2l-11.5-10.1L292.5,186l4.9,4.2v33.5l-11.1,9.6
		l-4.8-3.9v-39.3l4.7-4.2l-11.4-10.1l-12.3,10.8l2.5,1.7l0,0l2.9,2v33.3c0,3.7-0.2,6.1-0.6,7.2c-0.4,0.9-1.5,1.7-3.2,2.4v1.8
		c4.7,2.1,9.8,5.5,15.3,10.4l18.1-16.4v1.5c0,3.4,0.5,6.1,1.4,8c0.5,0.9,1.1,1.8,2.1,2.8c0.9,0.9,2.1,1.9,3.4,3
		c0.3,0.3,0.9,0.7,1.7,1.2l13.8-10.4L317.6,232.8"/>
	<path d="M378.6,231.8c-0.2,0.1-0.3,0.3-0.4,0.4c-1.5,1-2.6,1.5-3.2,1.5c-1.8,0-2.8-1.5-3.2-4.5c-0.1-0.3-0.1-1-0.1-2V196
		c0-8.6-1.6-11.1-4.5-13.8c-2.9-2.8-7-6.3-7-6.3L342.9,190c-0.1-0.3-0.1-0.9-0.1-1.7c0-2.6-0.5-4.8-1.6-6.4
		c-0.8-1.2-2.4-2.8-4.9-4.8c-0.6-0.4-1.1-0.8-1.5-1.2l-13.7,10.3l1.6,2.1c1.8-1,2.9-1.5,3.4-1.5c0.6,0,1.2,0.1,1.6,0.3
		c0.4,0.2,0.7,0.6,0.9,1.3c0.2,0.6,0.4,1.5,0.4,2.7c0.1,1.2,0.1,2.7,0.1,4.4v35.1l-5.4,5l11.8,9.8l11.9-9.5l-4.7-5v-35.8l10.5-8.9
		c0,0,0.1,0,2.1,2.2c2,2.2,2.3,2.7,2.3,6.7c0,4.1,0,30.2,0,30.2c0,5.8,0.4,9.7,1.1,11.7c0.7,2,2.7,4.4,5.9,7.2
		c0.1,0.1,0.3,0.3,0.6,0.5c0.3,0.2,0.6,0.5,0.9,0.7l14.6-11.5l-1.7-2.7C379,231.5,378.8,231.6,378.6,231.8"/>
	<path d="M471.7,179.6l-37.4-27.4v15.8l17.2,13.1c-2.9,2.3-7.3,4.1-13.3,5.6v30.6c0,6.1-0.2,10.1-0.7,11.8c-0.4,1.7-1.5,3.4-3.2,5
		v1.4c2.4,0.1,4.7,0.4,6.8,0.9c2.1,0.5,4.1,1.1,6,1.8c1.9,0.7,4,1.7,6.2,3c2.2,1.3,4.6,2.7,7.1,4.4c5.3-4.1,12.1-7.7,20.2-10.9
		v-42.9c0-2.4,0.1-4.2,0.2-5.4L471.7,179.6 M467.2,234.3l-14.7-7v-40.5c0.9-0.7,1.6-1.2,2.2-1.6c0.6-0.4,1-0.7,1.3-1l11.2,8.1V234.3
		z"/>
	<path d="M514.4,235.4L514.4,235.4l-3.9-3.3v-42.5l4.7-4.3l-11.6-9.5l-11.4,9.1l4.8,4.1v33.7c0,3.2-0.1,5.3-0.3,6.1
		c-0.6,2.2-2,3.6-4.1,4.3v1.3c3.8,2.3,8.2,6,13.3,11.1l10.7-8.3L514.4,235.4"/>
	<path d="M242.4,179.6L205,152.1v15.8l17.2,13.1c-2.9,2.3-7.3,4.1-13.3,5.6v30.6c0,6.1-0.2,10.1-0.7,11.8c-0.4,1.7-1.5,3.4-3.2,5
		v1.4c2.4,0.1,4.7,0.4,6.8,0.9c2.1,0.5,4.1,1.1,6,1.8c1.9,0.7,4,1.7,6.2,3c2.2,1.3,4.6,2.7,7.1,4.4c5.3-4.1,12.1-7.7,20.2-10.9
		v-42.9c0-2.4,0.1-4.2,0.2-5.4L242.4,179.6 M237.9,234.3l-14.7-7v-40.5c0.9-0.7,1.6-1.2,2.2-1.6c0.6-0.4,1-0.7,1.3-1l11.2,8.1V234.3
		z"/>
	<path d="M578.6,231.8c-0.2,0.1-0.3,0.3-0.4,0.4c-1.5,1-2.6,1.5-3.2,1.5c-1.8,0-2.8-1.5-3.2-4.5c-0.1-0.3-0.1-1-0.1-2V196
		c0-8.6-1.6-11.1-4.5-13.8c-2.9-2.8-7-6.3-7-6.3L543,190c-0.1-0.3-0.1-0.9-0.1-1.7c0-2.6-0.5-4.8-1.6-6.4c-0.8-1.2-2.4-2.8-4.9-4.8
		c-0.6-0.4-1.1-0.8-1.5-1.2l-13.7,10.3l1.6,2.1c1.8-1,2.9-1.5,3.4-1.5c0.7,0,1.2,0.1,1.6,0.3c0.4,0.2,0.7,0.6,0.9,1.3
		c0.2,0.6,0.4,1.5,0.4,2.7c0.1,1.2,0.1,2.7,0.1,4.4v35.1l-5.4,5l11.8,9.8l11.9-9.5l-4.7-5v-35.8l10.5-8.9c0,0,0.1,0,2.1,2.2
		c2,2.2,2.3,2.7,2.3,6.7c0,4.1,0,30.2,0,30.2c0,5.8,0.4,9.7,1.1,11.7c0.7,2,2.7,4.4,5.9,7.2c0.1,0.1,0.3,0.3,0.6,0.5
		c0.3,0.2,0.6,0.5,0.9,0.7l14.6-11.5l-1.7-2.7C579,231.5,578.8,231.6,578.6,231.8"/>
	<polyline points="509.2,148 495.7,147.4 491.7,166 495.7,166.4 509.2,148 	"/>
</g>
</svg>
